<svg xmlns="http://www.w3.org/2000/svg" viewBox="0 0 410.177 411.546"><defs><style>.cls-1{fill:#f5f5ff;}.cls-2{fill:#dfdfeb;}.cls-3{fill:#d3ddf7;}.cls-4{fill:#7584f1;}.cls-11,.cls-5,.cls-6,.cls-8{fill:none;stroke:#000;}.cls-11,.cls-5{stroke-linejoin:round;}.cls-6,.cls-8{stroke-miterlimit:10;}.cls-7{fill:#ba6f4c;}.cls-11,.cls-8{stroke-linecap:round;}.cls-9{fill:#9ec68a;}.cls-10{fill:#fff;}.cls-12{fill:#7e9e6e;}.cls-13{fill:#545fac;}.cls-14{font-size:18.12px;}.cls-15{letter-spacing:-0.005em;}</style></defs><g id="BACKGROUND"><ellipse class="cls-1" cx="206.549" cy="244.221" rx="142.424" ry="160.232" transform="translate(-115.977 28.126) rotate(-18.64)"/></g><g id="OBJECTS"><ellipse class="cls-2" cx="300.851" cy="387.086" rx="60.92" ry="11.298"/><rect class="cls-3" y="99.155" width="248.898" height="164.014" rx="10.158"/><path class="cls-4" d="M287.494,149.856H58.911a10.158,10.158,0,0,0-10.158,10.158V170h248.9v-9.984A10.158,10.158,0,0,0,287.494,149.856Z" transform="translate(-48.753 -50.701)"/><circle class="cls-5" cx="207.612" cy="109.546" r="3.597"/><circle class="cls-5" cx="221.062" cy="109.546" r="3.597"/><circle class="cls-5" cx="234.511" cy="109.546" r="3.597"/><path class="cls-4" d="M150.813,200.125c-2.837,0-5.584-1.9-7.762-3.713L140.4,194.2a8.705,8.705,0,0,0-5.585-2.1H112.189a3.717,3.717,0,0,0-3.717,3.717v83.333a4.988,4.988,0,0,0,4.989,4.989H227.669a4.989,4.989,0,0,0,4.989-4.989V205.115a4.99,4.99,0,0,0-4.989-4.99Z" transform="translate(-48.753 -50.701)"/><path class="cls-6" d="M223.563,216.111H191.255a2.608,2.608,0,0,1-2.608-2.608h0a2.608,2.608,0,0,1,2.608-2.608h32.308a2.608,2.608,0,0,1,2.608,2.608h0A2.608,2.608,0,0,1,223.563,216.111Z" transform="translate(-48.753 -50.701)"/><path class="cls-7" d="M416.122,193.9s5.736,13.49,6.476,17.4c2.267,11.981,13.033,44.927,16.676,49.055,0,0,6.8.729,10.2-1.214,0,0-8.5-53.912-12.142-61.2s-6.071-19.185-6.071-19.185Z" transform="translate(-48.753 -50.701)"/><path class="cls-7" d="M448.643,257.27c-3.761-3.128-11.351-1.271-12.673,3.439a33.61,33.61,0,0,0-1.213,6.648c-.191,1.279-4.845,9.2-3.954,10.819.646,1.176,3.936-2.52,5.584-5.114a.659.659,0,0,1,1.213.3c.312,3.522,1,10.568,1.611,11.443.813,1.173,3.77,6.141,4.647,5.6s-.107-4-.877-6.313.178-7.466.178-7.466,3.905,11.754,5.559,13.878c2.464,3.162,3.285-2,3.285-2,1.477,1.616,2.913-2.232,2.658-3.442-.5-2.389-4.207-10.852-3.552-10.542s4.83,9.25,6.725,9.512.977-2.966-.086-5.1-3.942-8.283-3.942-8.283a40.429,40.429,0,0,0-4.542-12.08C449.235,258.522,448.687,257.307,448.643,257.27Z" transform="translate(-48.753 -50.701)"/><line class="cls-8" x1="403.171" y1="237.524" x2="398.044" y2="225.602"/><polygon points="364.665 120.735 310.991 118.543 310.991 39.348 339.242 35.27 364.665 120.735"/><path class="cls-8" d="M387.158,85.3a492.251,492.251,0,0,1,19.479,57.893" transform="translate(-48.753 -50.701)"/><path class="cls-7" d="M292.214,183.714s12.629,5.613,41.922-16.488l-12.454-13.857Z" transform="translate(-48.753 -50.701)"/><path class="cls-9" d="M384.214,127.936c.533-.093,3.815,2.98,4.4,3.335,5.587,3.413,10.22,3.909,16.528,5.108,12.44,2.365,21.211,22.194,22.476,26.336,1.5,4.9,4.09,13.313,5.585,18.207,0,0-2.452,13.622-18.2,13.317L407.1,177.4s-8.946,20.171-9.472,21.75,5.438,21.224,5.438,21.224-47.009,18.066-74.372,8.332c0,0,9.282-35.463,6.788-36.614-2.362-1.089-7.265-5.358-1.35-24.866,0,0-9.911-5.788-12.278-21.048,0,0,12.892-11.927,21.048-12.191S384.2,127.938,384.214,127.936Z" transform="translate(-48.753 -50.701)"/><path class="cls-10" d="M364.481,141.486s3.42,9.077,13.813,3.946a23.332,23.332,0,0,0,12.141-13.42,60.811,60.811,0,0,1-6.221-4.076s-14.568,2.543-26.767,4.335C356.787,133.64,350.9,146.47,364.481,141.486Z" transform="translate(-48.753 -50.701)"/><path class="cls-7" d="M383.293,110.966l.921,16.97s-7.893,11.971-17.365,10.656L365.007,127.8Z" transform="translate(-48.753 -50.701)"/><path class="cls-7" d="M367.254,307.55l5.642,71.038,1.231,46.393s10.245,6.627,15.524-3.081c0,0,9.468-48.149,8.4-64.7s.8-36.037.8-36.037Z" transform="translate(-48.753 -50.701)"/><path d="M327.186,417.879s-28.935,24.907-26.331,24.907,14.9-1.754,22.859-3.683,11.14-7.016,11.14-7.016l.579,4.911,5.5-.7s6.221-13.155,1.881-20.522S327.186,417.879,327.186,417.879Z" transform="translate(-48.753 -50.701)"/><polygon points="282.484 382.614 286.679 386.297 288.705 380.07 285.45 379.281 282.484 382.614"/><path d="M374.089,418.844s-10.808,32.342-7.161,32.756c6.944.79,15.372-6.884,17.976-11.8s2.315-12.629,2.315-12.629l-2.46,5.789h5.064s2.749-2.631.579-15.261C390.4,417.7,374.089,433.709,374.089,418.844Z" transform="translate(-48.753 -50.701)"/><path class="cls-7" d="M329.356,305.27l-2.17,112.609s9.983,6.841,15.625-2.105c0,0,11.285-45.254,10.851-61.041s2.17-34.2,2.17-34.2Z" transform="translate(-48.753 -50.701)"/><path d="M333.434,207.394s12.629,23.153,66.829,3.157c0,0,21.049,54.726,4.736,115.767,0,0-46.307,21.575-90.508-4.21C314.491,322.108,321.858,246.334,333.434,207.394Z" transform="translate(-48.753 -50.701)"/><path class="cls-7" d="M334.136,130.041s-40.08,28.24-43.062,33.151-9.209,16.137-.438,20.347,43.588-34.116,52.007-47.1Z" transform="translate(-48.753 -50.701)"/><path class="cls-8" d="M298,182.136s12.5-6.8,27.406-23.811" transform="translate(-48.753 -50.701)"/><path class="cls-8" d="M336.212,192.547s33.18,15.9,53.7-1.641" transform="translate(-48.753 -50.701)"/><line class="cls-8" x1="358.351" y1="126.699" x2="351.209" y2="115.51"/><line class="cls-8" x1="285.382" y1="116.526" x2="289.417" y2="108.457"/><path class="cls-7" d="M355.721,121.064c-2.254-.215-4.4,2.147-5.259,1.878-.685-.214-1.606-3.456-1.953-4.766,1.3-7.606.409-13.506-1.375-11.925a1.85,1.85,0,0,0-.324.489c-.263-2.412-.949-3.619-1.876-2.8a6.771,6.771,0,0,0-.939,1.943c-.279-2.273-.952-3.385-1.852-2.587a15.142,15.142,0,0,0-1.539,3.693,1.55,1.55,0,0,0-.769-.419c-1.288-.43-4.258,10.7-4.4,11.27s-3.292,13.024-3.292,13.024c-1.145,4.509,7.853,6.578,10.5,5.576s8.677-7.508,8.677-7.508-.016-.023-.023-.035c.208-.3.512-.759.936-1.45.912-1.484,5.528-5.206,5.635-5.528S357.975,121.278,355.721,121.064Z" transform="translate(-48.753 -50.701)"/><path d="M357.868,121.922c.107-.322.107-.644-2.147-.858s-4.4,2.147-5.259,1.878c-.685-.214-1.606-3.456-1.953-4.766,1.3-7.606.409-13.506-1.375-11.925a1.85,1.85,0,0,0-.324.489c-.263-2.412-.949-3.619-1.876-2.8a6.771,6.771,0,0,0-.939,1.943,6.32,6.32,0,0,0-.636-2.338c-.294,7.764.566,19.538,7.459,25.919.313-.327.5-.532.5-.532s-.016-.023-.023-.035c.208-.3.512-.759.936-1.45C353.145,125.966,357.761,122.244,357.868,121.922Z" transform="translate(-48.753 -50.701)"/><path d="M381.254,114.189l2.039-3.223L365.007,127.8l1.395,8.171C374,134.735,377.55,122.467,381.254,114.189Z" transform="translate(-48.753 -50.701)"/><path class="cls-7" d="M346.315,95.132s-5.408,30.739,12.427,36.949,24.108-23.125,24.146-33.409S378.141,83,365.442,81.713C346.655,79.812,346.315,95.132,346.315,95.132Z" transform="translate(-48.753 -50.701)"/><path d="M386.849,83.268c-3.649-5.279-9.009-8.183-22.449-7.939a23.22,23.22,0,0,0-18.834,10.563,5.971,5.971,0,0,0,.91,7.882,9.693,9.693,0,0,1,2.387-5.21s21.289,11.538,29.8,9.844l2.028,7.977s2.878-4.084,5.835-5.405C386.521,100.98,390.5,88.548,386.849,83.268Z" transform="translate(-48.753 -50.701)"/><path class="cls-7" d="M390.227,108.652c-1.385,4.012-4.774,6.5-7.57,5.566s-3.939-4.952-2.554-8.965,4.774-6.5,7.57-5.566S391.612,104.639,390.227,108.652Z" transform="translate(-48.753 -50.701)"/><path d="M363.953,108.317c-.017,1.055-.574,1.9-1.245,1.894s-1.2-.873-1.185-1.928.574-1.9,1.245-1.895S363.969,107.261,363.953,108.317Z" transform="translate(-48.753 -50.701)"/><path d="M349.889,108.273c.039.993-.42,1.818-1.025,1.843s-1.129-.76-1.169-1.752.42-1.818,1.026-1.843S349.849,107.28,349.889,108.273Z" transform="translate(-48.753 -50.701)"/><path class="cls-8" d="M368.492,100.242s-4.877.718-4.9-3.865" transform="translate(-48.753 -50.701)"/><path class="cls-8" d="M352.217,98.81s-1.5,4.161-4.958,1.471" transform="translate(-48.753 -50.701)"/><path d="M363.692,125.333s2.006-6.359,6.688-2.336Z" transform="translate(-48.753 -50.701)"/><path class="cls-11" d="M387.6,104.909s-3.021-2.96-5.1,1.96c0,0,1.741,2.105.46,3.585a2.588,2.588,0,0,0,2.83-1.028" transform="translate(-48.753 -50.701)"/><path class="cls-11" d="M386.093,106.745a4.981,4.981,0,0,0-1.265-2.487" transform="translate(-48.753 -50.701)"/><path class="cls-8" d="M351.726,112.2a2.778,2.778,0,0,0-.6,2.629,2.323,2.323,0,0,0,2.192,1.689" transform="translate(-48.753 -50.701)"/><path class="cls-10" d="M384.871,114.221a2.73,2.73,0,1,1-2.729-2.729A2.729,2.729,0,0,1,384.871,114.221Z" transform="translate(-48.753 -50.701)"/><path class="cls-8" d="M339.047,134.6a3.376,3.376,0,0,0,3.6,1.842" transform="translate(-48.753 -50.701)"/><path class="cls-8" d="M340.6,106.992s1.907,1.014-1.184,11.933c0,0,1.907,6.906,1.381,8.222s-3.157,3.508-3.946,3.595" transform="translate(-48.753 -50.701)"/><path class="cls-8" d="M345.976,123.814a12.181,12.181,0,0,0-2.719,7.1" transform="translate(-48.753 -50.701)"/><path class="cls-8" d="M344,105.886s.621,8.368-.694,12.907" transform="translate(-48.753 -50.701)"/><path class="cls-2" d="M260.514,455.211c0,3.886-9.052,7.035-20.219,7.035s-20.22-3.149-20.22-7.035,9.053-7.035,20.22-7.035S260.514,451.326,260.514,455.211Z" transform="translate(-48.753 -50.701)"/><path class="cls-12" d="M239.841,350.569s-6.115.571-4.034-15.261c1.977-15.039,9.56-26,10.138-26.047,0,0,10.905,15.64,4.07,29.2S239.841,350.569,239.841,350.569Z" transform="translate(-48.753 -50.701)"/><path class="cls-12" d="M289.89,327.68s-14.006,16.787-48.095,28.614c0,0-.211-4.475,11.578-15.306S291.521,322.542,289.89,327.68Z" transform="translate(-48.753 -50.701)"/><path class="cls-8" d="M289.89,327.68s-26.707,4.192-48.095,28.614c0,0-2.1,2.671-2.362,8.417" transform="translate(-48.753 -50.701)"/><path class="cls-12" d="M189.383,360.174s14.006,16.787,48.1,28.614c0,0,.21-4.475-11.579-15.306S187.752,355.035,189.383,360.174Z" transform="translate(-48.753 -50.701)"/><path class="cls-8" d="M189.383,360.174s26.707,4.192,48.1,28.614c0,0,2.1,2.671,2.362,8.416" transform="translate(-48.753 -50.701)"/><path class="cls-12" d="M208.3,394.539s9.316,7.616,29.532,1.52c0,0-.261-3.9-7.823-7.508S206.947,390.951,208.3,394.539Z" transform="translate(-48.753 -50.701)"/><path class="cls-8" d="M208.3,394.539s15.408-9.081,29.532,1.52c0,0,1.41,1.272,2.044,6.024" transform="translate(-48.753 -50.701)"/><path class="cls-12" d="M286.289,354.49s-9.788,26.34-43.877,38.166c0,0-1.174-14.867,10.614-25.7S287.92,349.352,286.289,354.49Z" transform="translate(-48.753 -50.701)"/><path class="cls-8" d="M286.289,354.49s-24.876,5.318-43.877,38.166a24.1,24.1,0,0,0-2.442,9.695" transform="translate(-48.753 -50.701)"/><path class="cls-12" d="M234.006,358.641s-2.867,4.663-14.162,3.211-23.507-14.878-31.133-12.441C188.711,349.411,207.466,342.688,234.006,358.641Z" transform="translate(-48.753 -50.701)"/><path class="cls-8" d="M241.873,422.615a364.2,364.2,0,0,1-.712-81.881s.435-8.056,4.784-31.473" transform="translate(-48.753 -50.701)"/><path class="cls-8" d="M191.042,348.805s18.965-4.6,42.964,9.836c5.814,3.5,5.55,10.091,5.18,15.229" transform="translate(-48.753 -50.701)"/><path class="cls-13" d="M218.155,412.943l6.576,40.481c0,2.481,7.015,4.492,15.668,4.492s15.669-2.011,15.669-4.492l6.576-40.481Z" transform="translate(-48.753 -50.701)"/><ellipse cx="191.646" cy="362.243" rx="22.244" ry="4.492"/><path class="cls-3" d="M264.859,50.713A33.014,33.014,0,0,1,287.1,107.25a4.125,4.125,0,0,0-1.184,3.628l2.445,14.471-15.045-8.766a4.053,4.053,0,0,0-2.839-.487,33.025,33.025,0,1,1-5.617-65.383Z" transform="translate(-48.753 -50.701)"/><path d="M263.031,98.472a1.292,1.292,0,0,1-1.05-.434,1.818,1.818,0,0,1-.365-1.21A1.771,1.771,0,0,1,262,95.641a1.46,1.46,0,0,1,2.1-.023,1.906,1.906,0,0,1,.343,1.21,1.864,1.864,0,0,1-.366,1.165A1.239,1.239,0,0,1,263.031,98.472ZM262.75,87.1q-.053-1.416-.1-2.9t-.078-2.969q-.027-1.484.026-3.037V66.138h1.146l.053,12.057q0,1.553-.027,3.037t-.077,2.969q-.054,1.484-.105,2.9Z" transform="translate(-48.753 -50.701)"/></g><g id="TEXTS"><text class="cls-14" transform="translate(83.924 200.233)">No Da<tspan class="cls-15" x="55.029" y="0">t</tspan><tspan x="61.661" y="0">a</tspan></text></g></svg>