<svg xmlns="http://www.w3.org/2000/svg" xmlns:xlink="http://www.w3.org/1999/xlink" viewBox="0 0 1252.168 806.735"><defs><style>.cls-1{fill:none;}.cls-2{isolation:isolate;}.cls-3{font-size:70.249px;font-family:PublicaPlay-Regular, Publica Play;}.cls-4{letter-spacing:-0.01em;}.cls-5{letter-spacing:-0.008em;}.cls-6{clip-path:url(#clip-path);}.cls-7,.cls-9{fill:#231f20;}.cls-7{opacity:0.2;mix-blend-mode:multiply;}.cls-8{fill:#fff;}.cls-10{fill:#e23d3a;}.cls-11{fill:#656263;}.cls-12{fill:#fdddce;}</style><clipPath id="clip-path" transform="translate(22.748 -164.78)"><rect class="cls-1" width="1200" height="1200"/></clipPath></defs><g class="cls-2"><g id="bg"><text class="cls-3" transform="translate(253.627 59.43)">N<tspan class="cls-4" x="47.348" y="0">e</tspan><tspan x="88.233" y="0">twork Disconne</tspan><tspan class="cls-4" x="590.718" y="0">c</tspan><tspan class="cls-5" x="631.11" y="0">t</tspan><tspan x="654.434" y="0">ed</tspan></text></g><g id="main_characeter" data-name="main characeter"><g class="cls-6"><path class="cls-7" d="M555,918.4c0,6.276-56.392,11.342-125.978,11.342C359.4,929.746,303,924.68,303,918.4c0-6.256,56.4-11.347,126.022-11.347C498.607,907.057,555,912.148,555,918.4Z" transform="translate(22.748 -164.78)"/><path class="cls-8" d="M385.37,848.008h66.887S474.4,817.315,474.4,777.2c0-51.662,64.076-70.812,64.076-143.011,0-74.894-58.606-130.391-123.7-130.513h-.221c-65.092.122-123.7,55.619-123.7,130.513,0,72.2,64.075,91.349,64.075,143.011C354.93,817.315,385.37,848.008,385.37,848.008Z" transform="translate(22.748 -164.78)"/><path class="cls-8" d="M470.489,813.728c-11.895,3.573-21.41-4.96-24.981-16.856a22.5,22.5,0,0,1,15.052-28.008c12.112-3.68,46.81-37.083,70.6-25.766C552.444,753.213,474.877,812.411,470.489,813.728Z" transform="translate(22.748 -164.78)"/><path class="cls-8" d="M391.888,917.7c-24.085,0-32.6-112.446-32.6-112.446A22.492,22.492,0,1,1,404,800.279S415.968,917.7,391.888,917.7Z" transform="translate(22.748 -164.78)"/><path class="cls-8" d="M438.648,916.766c-28.109,0-10.522-119.139-10.522-119.139a22.494,22.494,0,0,1,44.759,4.542S464.519,916.766,438.648,916.766Z" transform="translate(22.748 -164.78)"/><path class="cls-8" d="M408.045,510.312s-14.164-2.777-19.67-11.956c-5.653-9.434,12.674-8.449,18.762-1.016a24.43,24.43,0,0,1,3.729,6.02s2.684-12.079,8.89-13.828,9.513,4.5,6.178,8.716l-3.34,4.222a25.206,25.206,0,0,1,13.252-6.072c6.4-.753,11.782.262,8.578,4.992-2.156,3.186-17.21,9.753-17.21,9.753Z" transform="translate(22.748 -164.78)"/><polygon class="cls-9" points="458.455 606.036 458.584 606.026 463.819 605.643 468.097 592.999 461.264 586.56 457.18 586.862 457.049 586.87 452.959 587.171 447.147 594.533 453.222 606.421 458.455 606.036"/><polygon class="cls-9" points="463.205 669.034 476.211 653.76 463.861 608.812 458.816 609.179 458.816 609.179 458.753 609.185 458.686 609.189 458.686 609.189 453.642 609.56 447.975 655.829 463.075 669.042 463.084 669.176 463.146 669.105 463.215 669.167 463.205 669.034"/><path class="cls-9" d="M526.771,580.264c-3.1,1.409-6.285,2.631-9.46,3.8-3.19,1.154-6.422,2.158-9.673,3.048-2.426.684-4.9,1.282-7.34,1.786-1.105-3.205-2.22-6.4-3.38-9.588l-.089-.218a3.2,3.2,0,0,0-4.238-1.6l-.2.091q-5.012,2.262-10.128,4.252c-3.423,1.3-6.827,2.637-10.29,3.815s-6.935,2.3-10.439,3.3c-.841.233-1.7.466-2.552.7l2.369-6.376a4.452,4.452,0,0,0-6.526-5.328l-.061.041a135.992,135.992,0,0,1-25.512,12.183,275.352,275.352,0,0,1-27.524,8.556c-4.669,1.242-9.38,2.353-14.115,3.406q-7.089,1.65-14.256,3.027c-9.542,1.95-19.16,3.594-28.845,5.191a242.075,242.075,0,0,0,29.472-.681q7.356-.639,14.7-1.558,7.329-1,14.622-2.367a218,218,0,0,0,28.846-7.446,161.5,161.5,0,0,0,16.845-6.9l-1.08,3.03-.038.106a4.31,4.31,0,0,0,5.038,5.641c3.909-.913,7.475-1.95,11.112-3.173q5.412-1.8,10.706-3.89c3.524-1.407,7.037-2.838,10.451-4.48,2.393-1.129,4.759-2.323,7.106-3.539,1.193,2.691,2.385,5.383,3.624,8.054l.138.291a2.569,2.569,0,0,0,3.014,1.4,101.79,101.79,0,0,0,10.038-3.41c3.237-1.316,6.413-2.778,9.513-4.353a96.6,96.6,0,0,0,9.02-5.22,84.006,84.006,0,0,0,8.326-6.169C532.968,577.377,529.864,578.84,526.771,580.264Z" transform="translate(22.748 -164.78)"/><path class="cls-9" d="M495.509,651.5a12.859,12.859,0,1,0,10.7-14.7A12.856,12.856,0,0,0,495.509,651.5Z" transform="translate(22.748 -164.78)"/><path class="cls-9" d="M518.059,630.51c-4.507.236-8.284.395-11.79,1.379a23.137,23.137,0,0,0-5.062,2.058A58.407,58.407,0,0,0,496,637.318c.568-4.543,4.4-8.548,9.076-9.764a14.5,14.5,0,0,1,6.976-.15A12.389,12.389,0,0,1,518.059,630.51Z" transform="translate(22.748 -164.78)"/><path class="cls-9" d="M404.026,665.9a12.86,12.86,0,1,1-14.7-10.707A12.855,12.855,0,0,1,404.026,665.9Z" transform="translate(22.748 -164.78)"/><path class="cls-9" d="M376.123,652.837a12.39,12.39,0,0,1,4.764-4.8,14.488,14.488,0,0,1,6.679-2c4.829-.279,9.7,2.357,11.635,6.508a58.2,58.2,0,0,0-5.988-1.611,22.845,22.845,0,0,0-5.447-.4C384.128,650.672,380.483,651.683,376.123,652.837Z" transform="translate(22.748 -164.78)"/><path class="cls-9" d="M399.318,708a41.858,41.858,0,1,1,34.843-47.856A41.908,41.908,0,0,1,399.318,708Zm-11.611-73.812a32.862,32.862,0,1,0,37.568,27.354A32.895,32.895,0,0,0,387.707,634.185Z" transform="translate(22.748 -164.78)"/><path class="cls-9" d="M513.134,690.1a41.859,41.859,0,1,1,34.847-47.862A41.911,41.911,0,0,1,513.134,690.1Zm-11.612-73.819a32.864,32.864,0,1,0,37.569,27.356A32.9,32.9,0,0,0,501.522,616.277Z" transform="translate(22.748 -164.78)"/><path class="cls-9" d="M432.382,657.416l-6.474-6.252a38.758,38.758,0,0,1,45.951-7.321l-4.207,7.952a29.744,29.744,0,0,0-35.27,5.621Z" transform="translate(22.748 -164.78)"/><path class="cls-8" d="M299.536,775.309c16.532-22.02,55.857-3.169,65.343-3.515a22.492,22.492,0,0,1,23.3,21.659c.454,12.414-5.2,22.8-17.616,23.246C365.984,816.867,283,797.326,299.536,775.309Z" transform="translate(22.748 -164.78)"/><path class="cls-9" d="M411.769,695.488a41.32,41.32,0,0,0,80.024-14.154Z" transform="translate(22.748 -164.78)"/><path class="cls-10" d="M431.448,717.656a41.136,41.136,0,0,0,49.708-9.017c-5.043-7.105-15.771-9.934-27.2-7.913C442.642,702.728,433.826,709.324,431.448,717.656Z" transform="translate(22.748 -164.78)"/><path class="cls-11" d="M224.717,704.323a5.253,5.253,0,0,1-1.678-.276l-29.3-9.879a5.25,5.25,0,1,1,3.355-9.949l29.3,9.879a5.25,5.25,0,0,1-1.676,10.225Z" transform="translate(22.748 -164.78)"/><path class="cls-11" d="M218.877,722.4a5.253,5.253,0,0,1-1.678-.276l-29.3-9.879a5.25,5.25,0,1,1,3.354-9.949l29.3,9.879a5.25,5.25,0,0,1-1.677,10.225Z" transform="translate(22.748 -164.78)"/><path class="cls-9" d="M232.773,683.24c-4.136-1.49-9.092-.717-13.957,2.688-10,7-15.823,22.465-13,34.541,1.451,6.2,4.9,10.3,9.268,11.879l34.537,12.439c-4.37-1.572-7.82-5.677-9.271-11.877-2.826-12.075,3-27.544,13-34.543,4.863-3.4,9.821-4.177,13.957-2.689Z" transform="translate(22.748 -164.78)"/><path class="cls-11" d="M253.352,698.367c10-7,20.4-2.886,23.225,9.191s-2.994,27.54-13,34.541-20.4,2.885-23.228-9.189S243.349,705.366,253.352,698.367Z" transform="translate(22.748 -164.78)"/><path class="cls-9" d="M134.672,971.516c-8.946,0-16.834-2.369-24.11-5.044-8.985-3.3-17.514-7.62-25.761-11.795-10.784-5.46-20.97-10.617-32.134-13.732-19.924-5.558-41.433-6.254-62.233-6.925q-4.071-.132-8.122-.273a5.249,5.249,0,0,1-5.056-5.437,5.281,5.281,0,0,1,5.436-5.057c2.685.1,5.38.185,8.081.272,21.422.692,43.573,1.409,64.716,7.307,12.161,3.395,23.29,9.027,34.053,14.476,7.98,4.04,16.231,8.215,24.643,11.308,7.8,2.868,16.345,5.347,25.924,4.027,4.4-.6,8.158-2.849,9.8-5.858,1.3-2.376,1.222-5.182-.235-8.34-3.4-7.369-1.661-12.37.4-15.267,6.66-9.375,25.553-8.616,33.364-7.855,9.948.968,19.53,3.362,28.794,5.677,10.429,2.6,20.278,5.065,30.647,5.684,16.979,1.011,33.077.345,35.944-11.287,3.171-12.862-3.7-26.391-10.348-39.475-4.095-8.063-8.331-16.4-10.275-24.686-5.039-21.483,1.537-39.074,20.105-53.781,1.919-1.52,4.137-3.18,6.485-4.935,14.934-11.172,37.5-28.057,30.358-44.723-11.541-26.928-56.09-31.154-56.539-31.194a5.25,5.25,0,0,1,.922-10.459c2.087.182,51.28,4.88,65.268,37.516,10.4,24.262-17.219,44.922-33.72,57.266-2.288,1.713-4.449,3.33-6.255,4.762-15.261,12.085-20.471,25.8-16.4,43.149,1.655,7.056,5.424,14.475,9.413,22.33C285,893.272,293.124,909.26,289.02,925.91c-5.354,21.723-33.325,20.053-46.764,19.256-11.343-.678-22.132-3.373-32.566-5.981-9.3-2.322-18.093-4.518-27.268-5.412-11.362-1.1-21.589.393-23.786,3.487-.818,1.151-.138,3.237.576,4.785,2.846,6.168,2.814,12.482-.088,17.782-3.263,5.96-9.837,10.154-17.586,11.22A50.486,50.486,0,0,1,134.672,971.516Z" transform="translate(22.748 -164.78)"/><path class="cls-8" d="M296.284,768.9c5.706-8.329,13.188-12.085,19.714-9.337,8.336,3.51.354,27.392-11.816,30.4C292.8,792.762,288.168,780.742,296.284,768.9Z" transform="translate(22.748 -164.78)"/><polygon class="cls-10" points="146.367 541.647 144.83 553.056 185.129 551.8 146.367 541.647"/><polygon class="cls-10" points="173.265 483.939 163.222 492.079 199.22 519.135 173.265 483.939"/><polygon class="cls-10" points="236.346 454.172 223.444 453.316 231.454 497.632 236.346 454.172"/><path class="cls-7" d="M897,918.4c0,6.276-56.394,11.342-125.98,11.342C701.4,929.746,645,924.68,645,918.4c0-6.256,56.4-11.347,126.02-11.347C840.606,907.057,897,912.148,897,918.4Z" transform="translate(22.748 -164.78)"/><path class="cls-9" d="M694.793,766.338c6.6-3.406,10.723-13,13.67-19.383a9.1,9.1,0,0,1,16.529,7.617c-2.941,6.394-13.6,27.485-27.19,30.619a21.8,21.8,0,0,1-17.845-3.3,49.93,49.93,0,0,1-14.247-15.562l13.939-7.515C683.616,763.819,687.363,770.17,694.793,766.338Z" transform="translate(22.748 -164.78)"/><path class="cls-8" d="M678.832,757.815c.275.324.545.662.817,1l-13.939,7.515a38.825,38.825,0,0,1-4.058-9.768C658.488,744.109,675.284,753.612,678.832,757.815Z" transform="translate(22.748 -164.78)"/><path class="cls-8" d="M777.911,489.943c19.19-27.59,43.822-16.833,85.324,8.89,0,0,27.847,14.882,32.769-17.185,0,0,14.162,97.444-84.276,70.887C811.728,552.535,751.989,527.206,777.911,489.943Z" transform="translate(22.748 -164.78)"/><path class="cls-8" d="M801.1,839.582H736.145s-3.9-15.361-3.9-54.32c0-50.166-79.825-83.207-79.825-153.317,0-72.728,56.918-126.619,120.123-126.741v0c.038,0,.07,0,.108,0s.074,0,.106,0v0c63.214.122,120.126,54.013,120.126,126.741,0,70.11-85.442,103.4-85.442,153.573C807.439,824.471,801.1,839.582,801.1,839.582Z" transform="translate(22.748 -164.78)"/><path class="cls-8" d="M736.857,912.736c9.7,1.388,18.991-17.415,22.623-35.1,3.753-18.246,11.212-41.726.935-58.981-4.242-7.125-12.791-8.453-19.846-4.584-10.01,5.5-5.141,20.631-5.253,30.071-.093,7.92,2.265,18.071,3.235,32.338C739.781,894.541,726.817,911.3,736.857,912.736Z" transform="translate(22.748 -164.78)"/><path class="cls-8" d="M806.8,914.268c-7.524,6.273-25.412-6.493-30.776-23.733-5.526-17.787-15.261-45.678-6.733-63.861,3.524-7.512,11.9-9.676,19.31-6.518,10.5,4.487,7.136,20.024,8.179,29.4.868,7.875-.477,23.475-.041,37.766C797.291,905.414,815.2,907.272,806.8,914.268Z" transform="translate(22.748 -164.78)"/><path class="cls-9" d="M732.243,792.012H807.9c26.444,25.66-2.091,83.05-2.091,83.05H729.691S705.794,817.672,732.243,792.012Z" transform="translate(22.748 -164.78)"/><path class="cls-9" d="M751.931,772.822l21.008-24.512s43.193-6.37,51.416-2.854c-9.94,12.809-16.916,25.746-16.916,40.062,0,38.953-6.339,54.064-6.339,54.064H736.145s-3.9-15.361-3.9-54.32c0-4.2-7-1.755-12.984-12.02-2.772-10.758,2.478-21.117-5.221-31.209,7.679.506,20.616,9.574,20.616,9.574Z" transform="translate(22.748 -164.78)"/><path class="cls-9" d="M705.858,572.943a42.84,42.84,0,0,0,12.882,4.985c4.351.735,8.593.373,12.076-1.6a19.541,19.541,0,0,0,6.621-6.126,17.288,17.288,0,0,0,1.442-2.446,4.3,4.3,0,0,1,.718-1.1,4.123,4.123,0,0,1,5.818-.292l.17.161c13.1,11.882,27.861,21.737,44.221,28.134,4.081,1.607,8.253,3.006,12.492,4.225,4.251,1.158,8.578,2.1,12.958,2.865a113.49,113.49,0,0,0,26.886,1.392,60.786,60.786,0,0,1-13.457,3.23,86.524,86.524,0,0,1-13.933.707,90.625,90.625,0,0,1-13.975-1.4,96.748,96.748,0,0,1-13.7-3.344,109.775,109.775,0,0,1-25.5-12.042,123.556,123.556,0,0,1-18.3-14.325,30.122,30.122,0,0,1-2.159,2.278,23.718,23.718,0,0,1-7.207,4.7,23.425,23.425,0,0,1-16.576.468,40.153,40.153,0,0,1-13.377-7.729,68.285,68.285,0,0,1-10.257-10.8A118.251,118.251,0,0,0,705.858,572.943Z" transform="translate(22.748 -164.78)"/><path class="cls-9" d="M864.812,723.689c-.306.241-23.646,23.49-45.771,22.608-4.867-.272-9.963-.783-14.332,1.822-3.383,2.019-7.869,6.93-4.58,10.866,2.918,3.5,9.64,5.128,16.336,5.732,6.638.6,13.29.385,19.58-2.018,13.947-5.343,26.634-15.379,38.219-24.86a34.524,34.524,0,0,0,3.89-4.266L866.16,722.324C865.33,723.132,864.812,723.689,864.812,723.689Z" transform="translate(22.748 -164.78)"/><path class="cls-8" d="M876.58,710.692c-10.852-3.077-10.043,3.563-10.42,11.632l11.994,11.249C881.376,729.412,883.047,712.526,876.58,710.692Z" transform="translate(22.748 -164.78)"/><path class="cls-9" d="M811.1,647.1a15.655,15.655,0,0,1,5.073-6.819,16.977,16.977,0,0,1,8.144-3.535,16.467,16.467,0,0,1,8.819,1.189,16.743,16.743,0,0,1,6.744,5.228,69.911,69.911,0,0,0-7.739-1.948,23.36,23.36,0,0,0-7.218-.155c-.442.061-.875.157-1.311.235a12.456,12.456,0,1,1-14.232,10.6A12.246,12.246,0,0,1,811.1,647.1Z" transform="translate(22.748 -164.78)"/><path class="cls-9" d="M716.131,634.033a15.726,15.726,0,0,0-3.041-7.941,17.049,17.049,0,0,0-6.883-5.6,16.455,16.455,0,0,0-8.816-1.241,16.921,16.921,0,0,0-7.907,3.21,69.2,69.2,0,0,1,7.972.228,23.044,23.044,0,0,1,7,1.8c.4.175.8.383,1.193.578a12.458,12.458,0,1,0,10.838,14.051A12.284,12.284,0,0,0,716.131,634.033Z" transform="translate(22.748 -164.78)"/><path class="cls-12" d="M805.941,682.869c-.548,3.984,5.565,8.115,13.647,9.229s15.083-1.211,15.629-5.192-5.562-8.109-13.647-9.224S806.488,678.9,805.941,682.869Z" transform="translate(22.748 -164.78)"/><path class="cls-12" d="M682.087,665.838c-.544,3.973,5.561,8.1,13.643,9.219s15.088-1.217,15.635-5.19-5.57-8.113-13.652-9.224S682.637,661.854,682.087,665.838Z" transform="translate(22.748 -164.78)"/><path class="cls-9" d="M774.412,670.066l-17.646-1.842-.313-.039-17.641-1.839a163.9,163.9,0,0,0-.644,21.734c.41,10.494,6.289,18.264,14.19,19.225v0c.03,0,.06.016.087.017s.045,0,.071,0,.046.009.066.015.062-.006.1,0l0-.009c7.926.7,15.286-5.681,17.863-15.869A164.137,164.137,0,0,0,774.412,670.066Z" transform="translate(22.748 -164.78)"/><path class="cls-10" d="M770.539,691.463c.533-2.127,1.006-4.2,1.42-6.171-3.564-1.753-15.1-5.425-33.072,8.08,1.84,7.734,6.97,13.136,13.471,13.933v0c.03,0,.06.016.087.017s.045,0,.071,0,.046.009.066.015.062-.006.1,0l0-.009C760.6,708.031,767.962,701.651,770.539,691.463Z" transform="translate(22.748 -164.78)"/><path class="cls-9" d="M1065.5,963.494a43.3,43.3,0,0,1-19.2-4.435c-6.6-3.289-10.707-9.247-14.337-14.5a60.3,60.3,0,0,0-5.4-7.1c-4.849-5.129-11.662-9.038-19.7-11.307-12.334-3.48-25.922-2.788-39.061-2.115-3.549.182-7.219.369-10.811.471-10.9.3-37.947-.824-53.179-18.076-8.957-10.144-12.186-23.823-9.595-40.657,7.12-46.283-9.363-68.607-22.609-86.545-11.564-15.663-22.49-30.458-6.676-53.445,28.1-40.853,63.565-39.74,65.059-39.655a5.249,5.249,0,0,1-.453,10.489h0c-1.271-.059-31.313-.709-55.955,35.115-11.57,16.823-5.162,25.5,6.473,41.26,13.64,18.475,32.324,43.777,24.538,94.378-2.093,13.61.292,24.413,7.089,32.109,12.3,13.927,35.564,14.812,45.009,14.531,3.473-.1,7.082-.284,10.574-.462,13.992-.712,28.454-1.452,42.448,2.5,9.863,2.783,18.328,7.692,24.478,14.2a68.916,68.916,0,0,1,6.414,8.344c3.192,4.623,6.207,8.99,10.379,11.07a33.189,33.189,0,0,0,24.883,1.629c9.627-3.356,18.924-7.807,27.915-12.109,12.873-6.16,26.186-12.532,41.092-16.092,25.065-5.987,51.076-7.037,76.231-8.051l2.854-.116a5.25,5.25,0,1,1,.426,10.491l-2.856.115c-24.653,1-50.144,2.024-74.215,7.774-13.822,3.3-26.052,9.153-39,15.349-9.249,4.428-18.814,9.006-28.99,12.553A42.111,42.111,0,0,1,1065.5,963.494Z" transform="translate(22.748 -164.78)"/><path class="cls-9" d="M931.4,710.03c-3.91,2.007-8.923,1.875-14.185-.876-10.818-5.662-18.572-20.25-17.317-32.588.643-6.339,3.538-10.847,7.666-12.97l32.66-16.764c-4.134,2.119-7.031,6.632-7.673,12.971-1.251,12.334,6.5,26.927,17.32,32.588,5.26,2.751,10.275,2.882,14.188.877Z" transform="translate(22.748 -164.78)"/><path class="cls-11" d="M949.869,692.391c10.815,5.656,20.605.244,21.856-12.092s-6.5-26.93-17.317-32.592-20.605-.246-21.859,12.1S939.049,686.73,949.869,692.391Z" transform="translate(22.748 -164.78)"/><path class="cls-9" d="M950.654,666.659c-2.156.925-4.861-.556-6.043-3.31s-.393-5.736,1.763-6.661,4.86.558,6.044,3.31S952.808,665.733,950.654,666.659Z" transform="translate(22.748 -164.78)"/><path class="cls-9" d="M959.8,684.328c-2.155.924-4.86-.558-6.042-3.31s-.392-5.737,1.762-6.661,4.86.558,6.043,3.311S961.955,683.4,959.8,684.328Z" transform="translate(22.748 -164.78)"/><path class="cls-8" d="M880.219,718.57c-1.748-2.956-3.455-2.979-9.759,7.711l7.694,7.292C881.376,729.412,883.1,723.442,880.219,718.57Z" transform="translate(22.748 -164.78)"/><polygon class="cls-10" points="970.322 429.67 958.821 429.18 963.74 469.196 970.322 429.67"/><polygon class="cls-10" points="1030.24 451.206 1021.218 441.946 997.551 480.257 1030.24 451.206"/><polygon class="cls-10" points="1065.623 511.317 1065.3 498.39 1021.897 510.399 1065.623 511.317"/></g></g></g></svg>