<svg xmlns="http://www.w3.org/2000/svg" xmlns:xlink="http://www.w3.org/1999/xlink" viewBox="0 0 2878.285 2800"><defs><style>.cls-1{fill:none;}.cls-2{isolation:isolate;}.cls-3{fill:#f4f7fa;}.cls-4{fill:#97a6b7;}.cls-5{fill:url(#linear-gradient);}.cls-6{fill:url(#linear-gradient-2);}.cls-7{fill:url(#linear-gradient-3);}.cls-8{fill:url(#linear-gradient-4);}.cls-24,.cls-9{opacity:0.48;}.cls-13,.cls-24,.cls-9{mix-blend-mode:soft-light;}.cls-10,.cls-24{fill:#fff;}.cls-11{clip-path:url(#clip-path);}.cls-12{fill:url(#linear-gradient-5);}.cls-13{opacity:0.5;}.cls-14{fill:#beb8f2;}.cls-15{fill:url(#linear-gradient-6);}.cls-16{clip-path:url(#clip-path-2);}.cls-17{fill:#fcfdfe;}.cls-18{fill:url(#linear-gradient-7);}.cls-19{fill:url(#linear-gradient-8);}.cls-20{fill:url(#linear-gradient-9);}.cls-21{fill:url(#linear-gradient-10);}.cls-22{fill:url(#linear-gradient-11);}.cls-23,.cls-42,.cls-45,.cls-51{opacity:0.3;}.cls-23,.cls-45,.cls-51{mix-blend-mode:multiply;}.cls-23{fill:url(#linear-gradient-12);}.cls-25{fill:url(#linear-gradient-13);}.cls-26{fill:url(#linear-gradient-14);}.cls-27{fill:url(#linear-gradient-15);}.cls-28{fill:#de8bdf;}.cls-29{fill:url(#linear-gradient-16);}.cls-30{fill:url(#linear-gradient-17);}.cls-31{fill:url(#linear-gradient-18);}.cls-32{fill:url(#linear-gradient-19);}.cls-33{fill:url(#linear-gradient-20);}.cls-34{fill:url(#linear-gradient-21);}.cls-35{fill:url(#linear-gradient-22);}.cls-36{fill:url(#linear-gradient-23);}.cls-37{fill:url(#linear-gradient-24);}.cls-38{fill:url(#linear-gradient-25);}.cls-39{fill:url(#linear-gradient-26);}.cls-40{fill:url(#linear-gradient-27);}.cls-41{fill:url(#linear-gradient-28);}.cls-42{mix-blend-mode:color-burn;}.cls-43{fill:url(#linear-gradient-29);}.cls-44{fill:url(#linear-gradient-30);}.cls-46{fill:url(#linear-gradient-31);}.cls-47{fill:url(#linear-gradient-32);}.cls-48{fill:url(#linear-gradient-33);}.cls-49{fill:url(#linear-gradient-34);}.cls-50{fill:url(#linear-gradient-35);}.cls-51{fill:url(#linear-gradient-36);}</style><linearGradient id="linear-gradient" x1="2165.859" y1="2264.928" x2="2172.751" y2="2523.361" gradientUnits="userSpaceOnUse"><stop offset="0" stop-color="#444b8c"/><stop offset="0.996" stop-color="#26264f"/></linearGradient><linearGradient id="linear-gradient-2" x1="2222.123" y1="1943.646" x2="1462.706" y2="-722.503" xlink:href="#linear-gradient"/><linearGradient id="linear-gradient-3" x1="2660.1" y1="667.402" x2="1361.879" y2="2169.793" gradientUnits="userSpaceOnUse"><stop offset="0.004" stop-color="#e38ddd"/><stop offset="1" stop-color="#9571f6"/></linearGradient><linearGradient id="linear-gradient-4" x1="1012.537" y1="2160.871" x2="3133.462" y2="2160.871" xlink:href="#linear-gradient"/><clipPath id="clip-path" transform="translate(-393.094 -455)"><path class="cls-1" d="M1656.332,1928.151l-216.781,121.408s-103.087-88.349-93.915-196.581c18.713-220.826-176-221.8-257.492-234.414-122.9-19.017-222.9-89.372-120.724-201.613S834.3,1180.713,631.4,1178.606c-198.556-2.061-309.465-356.207,120.7-391.2,256.89-20.9,346.274,213.815,419.591,321.614s247.1,22.787,266.95,193.52c16.954,145.837-28.368,284.483,88.6,325.766S1702.638,1756.593,1656.332,1928.151Z"/></clipPath><linearGradient id="linear-gradient-5" x1="1140.82" y1="1221.372" x2="814.657" y2="2094.826" gradientUnits="userSpaceOnUse"><stop offset="0" stop-color="#ffc444"/><stop offset="0.996" stop-color="#f36f56"/></linearGradient><linearGradient id="linear-gradient-6" x1="2745.066" y1="1282.885" x2="3466.105" y2="2469.901" gradientTransform="translate(-2114.971 1066.795) rotate(-16.835)" gradientUnits="userSpaceOnUse"><stop offset="0" stop-color="#ff9085"/><stop offset="1" stop-color="#fb6fbb"/></linearGradient><clipPath id="clip-path-2" transform="translate(-393.094 -455)"><path class="cls-1" d="M1653.729,2491.674l304.873-92.245c4.7-48.531,3.29-135.008-66.433-135.335-96.935-.455-145.169-156.525-137.043-219.144,10.057-77.5,29.769-258.449-120.077-261.509-124.746-2.548-205.765,21.305-256.962-123.294s-158.361-212.694-289.058-164.773c-137.539,50.431-307.428-102.439-403.965-6.216-168.211,167.663,108.376,438.168,379.436,460.4s157.19,151.027,185.979,273.214c39.3,166.812,250.941,66.478,328.531,113.739C1639.836,2373.557,1651.822,2445.835,1653.729,2491.674Z"/></clipPath><linearGradient id="linear-gradient-7" x1="1726.216" y1="2937.636" x2="1560.795" y2="3007.113" gradientUnits="userSpaceOnUse"><stop offset="0" stop-color="#40447e"/><stop offset="0.996" stop-color="#3c3b6b"/></linearGradient><linearGradient id="linear-gradient-8" x1="1505.329" y1="2208.572" x2="1325.804" y2="2283.972" xlink:href="#linear-gradient-7"/><linearGradient id="linear-gradient-9" x1="731.551" y1="2249.386" x2="2395.25" y2="2249.386" xlink:href="#linear-gradient-7"/><linearGradient id="linear-gradient-10" x1="2122.995" y1="1420.985" x2="770.908" y2="3310.437" xlink:href="#linear-gradient-3"/><linearGradient id="linear-gradient-11" x1="731.551" y1="2864.616" x2="3086.366" y2="2864.616" xlink:href="#linear-gradient-7"/><linearGradient id="linear-gradient-12" x1="569.386" y1="2390.322" x2="2294.744" y2="2390.322" xlink:href="#linear-gradient-7"/><linearGradient id="linear-gradient-13" x1="3126.793" y1="2629.755" x2="2800.356" y2="2351.29" xlink:href="#linear-gradient"/><linearGradient id="linear-gradient-14" x1="-1000.692" y1="4238.89" x2="245.097" y2="4285.232" gradientTransform="translate(-1389.032 1734.323) rotate(-90)" xlink:href="#linear-gradient"/><linearGradient id="linear-gradient-15" x1="2971.746" y1="2256.227" x2="2555.899" y2="2815.362" xlink:href="#linear-gradient-3"/><linearGradient id="linear-gradient-16" x1="2747.204" y1="964.459" x2="2414.395" y2="1284.343" xlink:href="#linear-gradient-5"/><linearGradient id="linear-gradient-17" x1="1758.043" y1="1037.349" x2="2889.34" y2="2887.659" xlink:href="#linear-gradient-5"/><linearGradient id="linear-gradient-18" x1="2357.926" y1="2090.842" x2="1439.149" y2="243.37" xlink:href="#linear-gradient-5"/><linearGradient id="linear-gradient-19" x1="1668.629" y1="1732.436" x2="2555.757" y2="1732.436" gradientUnits="userSpaceOnUse"><stop offset="0" stop-color="#311944"/><stop offset="1" stop-color="#893976"/></linearGradient><linearGradient id="linear-gradient-20" x1="2394.761" y1="1274.734" x2="2029.9" y2="1949.172" xlink:href="#linear-gradient-3"/><linearGradient id="linear-gradient-21" x1="2072.244" y1="1807.355" x2="2171.862" y2="1807.355" xlink:href="#linear-gradient-19"/><linearGradient id="linear-gradient-22" x1="2289.333" y1="1217.699" x2="1924.473" y2="1892.137" xlink:href="#linear-gradient-3"/><linearGradient id="linear-gradient-23" x1="-2300.184" y1="317.651" x2="-2331.623" y2="534.414" gradientTransform="matrix(-0.81, -0.587, -0.587, 0.81, 188.406, -458.302)" gradientUnits="userSpaceOnUse"><stop offset="0.004" stop-color="#f36f56"/><stop offset="1" stop-color="#ffc444"/></linearGradient><linearGradient id="linear-gradient-24" x1="926.589" y1="3209.134" x2="966.337" y2="3209.134" gradientTransform="translate(0.98 -81.332) rotate(-9.66)" xlink:href="#linear-gradient-23"/><linearGradient id="linear-gradient-25" x1="1003.406" y1="3045.359" x2="899.178" y2="3411.042" gradientTransform="translate(0.98 -81.332) rotate(-9.66)" xlink:href="#linear-gradient-3"/><linearGradient id="linear-gradient-26" x1="1578.11" y1="2583.695" x2="1241.075" y2="2860.545" gradientUnits="userSpaceOnUse"><stop offset="0" stop-color="#ab316d"/><stop offset="1" stop-color="#792d3d"/></linearGradient><linearGradient id="linear-gradient-27" x1="1400.502" y1="2520.08" x2="1308.267" y2="2843.685" gradientTransform="translate(20.029 69.056) rotate(5.377)" xlink:href="#linear-gradient-3"/><linearGradient id="linear-gradient-28" x1="1258.279" y1="2892.07" x2="1305.176" y2="2892.07" gradientTransform="translate(20.029 69.056) rotate(5.377)" xlink:href="#linear-gradient-23"/><linearGradient id="linear-gradient-29" x1="1220.419" y1="3151.186" x2="833.528" y2="2942.723" gradientTransform="translate(0.98 -81.332) rotate(-9.66)" xlink:href="#linear-gradient-26"/><linearGradient id="linear-gradient-30" x1="437.756" y1="2999.117" x2="64.208" y2="3387.032" gradientTransform="translate(-14.04 -148.002) rotate(-17.409)" xlink:href="#linear-gradient-26"/><linearGradient id="linear-gradient-31" x1="409.658" y1="2988.2" x2="43.869" y2="3368.058" gradientTransform="translate(-14.04 -148.002) rotate(-17.409)" xlink:href="#linear-gradient-26"/><linearGradient id="linear-gradient-32" x1="-1722.576" y1="2122.254" x2="-1730.796" y2="2023.613" gradientTransform="matrix(-0.999, 0.054, 0.054, 0.999, -504.552, -55.802)" xlink:href="#linear-gradient"/><linearGradient id="linear-gradient-33" x1="1345.753" y1="1879.247" x2="1372.836" y2="2285.494" gradientTransform="matrix(1, 0, 0, 1, 0, 0)" xlink:href="#linear-gradient-23"/><linearGradient id="linear-gradient-34" x1="4134.812" y1="2681.212" x2="4212.339" y2="2762.929" gradientTransform="matrix(0.966, -0.258, 0.258, 0.966, -3411.835, 402.95)" xlink:href="#linear-gradient-23"/><linearGradient id="linear-gradient-35" x1="-1927.183" y1="980.801" x2="-1960.909" y2="1213.332" gradientTransform="matrix(-1, 0, 0, 1, -318.972, 0)" xlink:href="#linear-gradient-23"/><linearGradient id="linear-gradient-36" x1="-1887.589" y1="2068.164" x2="-1787.019" y2="2591.966" gradientTransform="matrix(-1, 0, 0, 1, -318.972, 0)" xlink:href="#linear-gradient-23"/></defs><g class="cls-2"><g id="Illustration"><circle class="cls-3" cx="1478.285" cy="1400" r="1400"/><path class="cls-4" d="M2404.983,2514.9a107.54,107.54,0,0,1-71.305-80.967l-53-262.31-453.371,16.1-55.8,273.269c-7.814,38.271,23.467,76.666,59.494,90.762l189.68,74.215a246.589,246.589,0,0,0,110.894,16.077l400.865-34.293a24.868,24.868,0,0,0,22.481-22.032c1.364-11.817,9.574-25.086-1.6-28.793Z" transform="translate(-393.094 -455)"/><path class="cls-5" d="M2409.469,2498.946A106.6,106.6,0,0,1,2338.236,2419l-52.946-259.012L1842.97,2175.9l-55.741,269.833a78.948,78.948,0,0,0,48.839,89.6l189.489,73.282a248.971,248.971,0,0,0,110.782,15.875l400.46-33.862a24.708,24.708,0,0,0,5.616-48.1Z" transform="translate(-393.094 -455)"/><path class="cls-6" d="M3133.462,1989.244V813.058c0-24.118-19.876-44.65-44.234-45.629L1068.521,686.2c-30.75-1.237-55.984,20.011-55.984,47.222V2033.285Z" transform="translate(-393.094 -455)"/><path class="cls-7" d="M3045.65,826.177,1125.957,754.559c-27.972-1.043-50.92,18.412-50.92,43.238V1929.7c0,25.344,23.428,45.414,51.981,44.6l1917.78-54.541c22.888-.651,41.568-19.676,41.568-42.281V867.952C3086.366,845.811,3068.068,827.013,3045.65,826.177Z" transform="translate(-393.094 -455)"/><path class="cls-8" d="M1012.537,2033.285v259.6c0,27.21,25.234,48.4,55.984,47.106l2020.707-85.428c24.358-1.03,44.234-21.6,44.234-45.722V1981.7Z" transform="translate(-393.094 -455)"/><g class="cls-9"><path class="cls-10" d="M2914.6,1837.39c-165.965-56.056-303.268,58.284-422.564-31.743-134.494-101.5-25.787-296.482-150.2-411.352-172.822-159.574-518.333,87.9-668.395-62.541-103.171-103.43,18.531-269.02-68.832-443.209-44.419-88.566-127.654-148.946-228.69-189.988L1068.52,686.2c-30.749-1.237-55.982,20.011-55.982,47.221V2292.88c0,27.21,25.233,48.4,55.982,47.106l2020.708-85.429c24.359-1.029,44.235-21.6,44.235-45.721V2041C3062.3,1915.19,2983.745,1860.746,2914.6,1837.39Z" transform="translate(-393.094 -455)"/></g><g class="cls-11"><path class="cls-12" d="M1656.332,1928.151l-216.781,121.408s-103.087-88.349-93.915-196.581c18.713-220.826-176-221.8-257.492-234.414-122.9-19.017-208.939-84.33-137.575-197.924,80.745-128.526-116.266-239.927-319.17-242.034-198.556-2.061-309.465-356.207,120.7-391.2,256.89-20.9,346.274,213.815,419.591,321.614s247.1,22.787,266.95,193.52c16.954,145.837-28.368,284.483,88.6,325.766S1702.638,1756.593,1656.332,1928.151Z" transform="translate(-393.094 -455)"/><g class="cls-13"><path class="cls-14" d="M1573.777,2000.817l-4.964,1.7c-1.05-3.075-107.325-310.49-304.571-583.474-181.714-251.494-480.072-524.374-869.508-396.186l-1.64-4.982c173.358-57.065,343.383-40.773,505.355,48.419,129.387,71.249,253.909,188.926,370.108,349.762C1466.235,1689.672,1572.723,1997.736,1573.777,2000.817Z" transform="translate(-393.094 -455)"/><path class="cls-14" d="M964.522,1106.484l-4.86,1.977C893.827,946.77,715.993,764.31,714.205,762.486l3.744-3.674C719.745,760.645,898.3,943.845,964.522,1106.484Z" transform="translate(-393.094 -455)"/><path class="cls-14" d="M854.972,1050.013c-207.813-9.7-325.955,116.964-327.123,118.244l-3.874-3.535c1.185-1.3,120.881-129.77,331.242-119.949Z" transform="translate(-393.094 -455)"/><path class="cls-14" d="M1383.471,1604.532c-172.009-187.109-495.1-75.674-498.162-74.325l-2.424-4.645c2.874-1.609,330.911-113.351,504.447,75.421Z" transform="translate(-393.094 -455)"/><path class="cls-14" d="M1333.68,1512.313l-5.006,1.577c-48.774-154.675,48.116-334.162,49.1-335.958l4.6,2.521C1381.4,1182.231,1285.582,1359.8,1333.68,1512.313Z" transform="translate(-393.094 -455)"/><path class="cls-14" d="M1551.025,1954.506c-53.633-80.284-210.776-79.631-212.357-79.617l-.053-5.243c6.569-.069,161.557-.707,216.771,81.947Z" transform="translate(-393.094 -455)"/><path class="cls-14" d="M1526.837,1881.369l-4.943,1.756c-25.561-71.934,32.719-200.657,51.871-242.955,2.706-5.978,5.042-11.138,5.278-12.14l5.122,1.127c-.311,1.418-1.854,4.852-5.622,13.176C1559.608,1684.155,1501.984,1811.427,1526.837,1881.369Z" transform="translate(-393.094 -455)"/></g></g><path class="cls-15" d="M1633.6,2399.3q2.008.244,4.023.477c79.441,9.176,167.881,5.172,265.166-19.962l55.854-18.711c2.451-49.345-4.052-96.716-66.47-97.008-96.936-.454-145.17-156.526-137.044-219.144,10.056-77.505,29.769-258.45-120.077-261.509-124.746-2.548-205.765,21.3-256.962-123.294s-158.361-212.694-289.058-164.773c-137.539,50.431-307.428-102.439-403.965-6.217-168.211,167.664,108.376,438.17,379.436,460.4s157.19,151.027,185.979,273.214c39.3,166.811,250.941,66.478,328.531,113.739C1605.291,2352.516,1622.425,2375.11,1633.6,2399.3Z" transform="translate(-393.094 -455)"/><g class="cls-16"><g class="cls-13"><path class="cls-17" d="M1782.771,2400.284l6.1-3.236c-236.68-445.669-688.5-774.287-1179.131-857.612l-1.154,6.805C1097.149,1629.215,1547.073,1956.467,1782.771,2400.284Z" transform="translate(-393.094 -455)"/><path class="cls-17" d="M1632.917,2168.358l6.617-1.969c-56.6-190.065,62-386.67,63.2-388.634l-5.884-3.609C1695.633,1776.133,1575.43,1975.3,1632.917,2168.358Z" transform="translate(-393.094 -455)"/><path class="cls-17" d="M1737,2319.487l4.886-4.875c-141.992-142.341-499.257-62.088-502.849-61.26l1.55,6.726C1244.136,2259.26,1597.7,2179.852,1737,2319.487Z" transform="translate(-393.094 -455)"/><path class="cls-17" d="M1275.378,1826.6l5.288-4.439c-102.592-122.122-75.319-365.17-75.032-367.611l-6.853-.81C1198.489,1456.214,1170.889,1702.226,1275.378,1826.6Z" transform="translate(-393.094 -455)"/><path class="cls-17" d="M997.907,1666.241l1.787-6.668c-175.55-47.018-390.383,71.806-392.535,73.017l3.377,6.02C612.659,1737.413,825.091,1619.954,997.907,1666.241Z" transform="translate(-393.094 -455)"/></g></g><path class="cls-18" d="M3086.366,2847.118,731.551,2826.609v60.682c0,16.47,10.271,30.475,24.181,32.971L1421.6,3039.756a91.572,91.572,0,0,0,23.89,1.122l1615.283-136.243c14.421-1.216,25.59-15.264,25.59-32.186Z" transform="translate(-393.094 -455)"/><path class="cls-19" d="M2328.321,2748.749,757.468,2859.76c-28.11,1.986-50.965-19.121-50.965-47.151V1689.636a50.883,50.883,0,0,1,50.965-50.753H2328.321c23.157,0,41.881,20.541,41.881,45.88V2699.91C2370.2,2725.248,2351.478,2747.112,2328.321,2748.749Z" transform="translate(-393.094 -455)"/><path class="cls-20" d="M2353.368,2748.749,782.515,2859.76c-28.11,1.986-50.964-19.121-50.964-47.151V1689.636a50.882,50.882,0,0,1,50.964-50.753H2353.368c23.158,0,41.882,20.541,41.882,45.88V2699.91C2395.25,2725.248,2376.526,2747.112,2353.368,2748.749Z" transform="translate(-393.094 -455)"/><path class="cls-21" d="M2304.431,2677.179,841.346,2773.607c-22.875,1.507-41.464-15.817-41.464-38.7V1751.743a41.672,41.672,0,0,1,41.464-41.6l1463.085-6.055c19.1-.08,34.556,16.752,34.556,37.594v895.487C2338.987,2658.006,2323.535,2675.921,2304.431,2677.179Z" transform="translate(-393.094 -455)"/><path class="cls-10" d="M1623.419,1669.6c0,10.435-8.085,18.918-18.068,18.948s-18.109-8.422-18.109-18.88,8.112-18.941,18.109-18.949S1623.419,1659.164,1623.419,1669.6Z" transform="translate(-393.094 -455)"/><path class="cls-22" d="M2314.172,2743.715,731.551,2860.564,1421.6,2984.4a91.528,91.528,0,0,0,23.89,1.122l1640.873-138.4-747.019-102.609A119.913,119.913,0,0,0,2314.172,2743.715Z" transform="translate(-393.094 -455)"/><polygon class="cls-23" points="569.386 2408.503 1886.965 2309.772 2294.744 2365.333 988.515 2470.871 569.386 2408.503"/><path class="cls-24" d="M1974.9,2440.756c-121.1-65.157-216.318,17.405-308.212-64.055-55.712-49.386-28.359-86.214-96.912-160.016-75.927-81.741-125.359-54.264-201.665-127.832-96.483-93.022-48.227-165.4-131.335-232.183-100.822-81.022-209.552-6.03-305.528-83.733-41.395-33.514-64.107-82.237-75.968-134.054H761.37a29.813,29.813,0,0,0-29.819,29.791V2832.733a27.4,27.4,0,0,0,29.819,27.673l1600.956-113.639c7.857-.558,14.823-5.145,19.294-11.8-117.194-4.271-189.193-43.558-235.216-84.172C2056.37,2571.346,2071.986,2493,1974.9,2440.756Z" transform="translate(-393.094 -455)"/><path class="cls-25" d="M3043.653,2032.8v703.087c0,10.514-8.97,12.9-19.13,13.373l-340.17,22.31-5.036.232c-10.323.476-18.772-7.811-18.772-18.415V2044.266c0-10.605,8.449-19.531,18.772-19.835l6.835-.2,341.528,5.7C3037.844,2029.636,3043.653,2022.284,3043.653,2032.8Z" transform="translate(-393.094 -455)"/><path class="cls-26" d="M3054.529,2032.135v703.59c0,10.522-8.321,19.514-18.5,19.983l-346.356,15.962a18.083,18.083,0,0,1-18.8-18.428V2043.627c0-10.612,8.462-19.544,18.8-19.849l346.356-10.227C3046.208,2013.25,3054.529,2021.613,3054.529,2032.135Z" transform="translate(-393.094 -455)"/><path class="cls-27" d="M3043.038,2071.486v651.3c0,9.817-7.765,18.2-17.259,18.637l-325.693,14.9a16.866,16.866,0,0,1-17.525-17.189V2082.6c0-9.895,7.888-18.231,17.525-18.524l325.693-9.91C3035.273,2053.875,3043.038,2061.67,3043.038,2071.486Z" transform="translate(-393.094 -455)"/><path class="cls-28" d="M2869.958,2039.785a6.78,6.78,0,0,1-6.436,6.825,6.305,6.305,0,0,1-6.438-6.439,6.779,6.779,0,0,1,6.438-6.825A6.306,6.306,0,0,1,2869.958,2039.785Z" transform="translate(-393.094 -455)"/><g class="cls-9"><path class="cls-10" d="M2942.034,2439.777c-31.579-79.386-116.693-60.633-143.209-140.868-21.643-65.49,26.5-103.867,7.652-179.693-10.574-42.546-36.594-74.158-63.194-97.017l-52.737,1.554A20.082,20.082,0,0,0,2671.2,2043.6v709.015a17.118,17.118,0,0,0,19.344,17.248l265.293-27.832c-21.291-33.565-29.845-64.235-32.867-89.7C2911.974,2559.636,2970.964,2512.508,2942.034,2439.777Z" transform="translate(-393.094 -455)"/></g><path class="cls-29" d="M2083.147,2460.211a152.149,152.149,0,0,1-82.8-21.415c-75.571-45.3-187.236-120.113-287.7-218.044-127.476-124.269-200.719-250.588-216.744-374.629l-.251-1.944-3.11-529.279c0-104.6,68.227-189.51,196.319-245.3,105.83-46.1,246.1-68.936,394.283-64.647,146.461,4.239,281.984,34.459,382.294,84.811,119.24,59.857,181.805,143.976,181.805,243.706l-2.837,505.729-.229,1.86c-14.645,118.781-82.034,241.56-201.14,365.719-95.536,99.582-203.492,178.5-277.634,227.4A157.582,157.582,0,0,1,2083.147,2460.211Z" transform="translate(-393.094 -455)"/><path class="cls-30" d="M2112.213,2460.211a148.6,148.6,0,0,1-81.706-21.415c-74.573-45.3-184.763-120.113-283.9-218.044-125.792-124.269-198.067-250.588-213.879-374.629l-.249-1.944-3.068-529.279c0-104.6,67.324-189.51,193.723-245.3,104.433-46.1,242.848-68.936,389.076-64.647,144.524,4.239,278.258,34.459,377.241,84.811,117.667,59.857,179.4,143.976,179.4,243.706l-2.8,505.729-.227,1.86c-14.45,118.781-80.949,241.56-198.482,365.719-94.274,99.582-200.8,178.5-273.965,227.4A154.076,154.076,0,0,1,2112.213,2460.211Z" transform="translate(-393.094 -455)"/><path class="cls-31" d="M1564.36,1315.281l3.089,526.6c34.665,268.688,350.433,486.225,487.96,568.875,39.4,23.676,89.767,22.272,128.886-3.469,134.657-88.606,433.131-311.676,465.022-570.008l2.832-504.336C2652.149,958.772,1564.36,924.565,1564.36,1315.281Z" transform="translate(-393.094 -455)"/><path class="cls-32" d="M2120.016,2329.59a18.8,18.8,0,0,1-10.19-2.7c-56.626-34.291-166.395-106.117-261.89-199.917-103.149-101.322-162.639-199.831-176.281-292.352l-3.026-517.885c.125-49.691,39.461-92.218,116.566-126.247,86.075-37.989,208.313-57.922,334.822-54.918,125.248,2.974,243.919,28.187,326.133,68.983,72.723,36.085,109.489,78.625,109.607,126.6l-2.82,499.954c-12.733,89.531-68.568,186.05-166.6,287.51-92.178,95.4-199.855,171.022-256.135,207.8A19.47,19.47,0,0,1,2120.016,2329.59Z" transform="translate(-393.094 -455)"/><path class="cls-3" d="M2107.095,2294.191c-57.187-35.221-158.876-103.232-247.6-190.548-96.936-95.4-153.033-186.946-166.22-271.652l-3-514.878c.089-35.528,32.747-68.118,96.819-96.486,81.539-36.105,198.364-55.13,320-52.4,120.47,2.7,234.021,26.5,312.054,65.107,60.63,30,91.3,62.721,91.386,97.372l-2.814,498.116c-12.372,82.185-65.284,172.067-157.812,267.652C2264,2185.221,2164.022,2256.582,2107.095,2294.191Z" transform="translate(-393.094 -455)"/><path class="cls-33" d="M2311.714,1620.076l-385.086,3.426c-29.6.264-53.721,23.341-53.721,51.529V1921.76c0,28.022,24.028,49.743,53.524,48.535l383.727-15.712c27.293-1.118,49.428-23.712,49.568-50.487l1.219-235.7C2361.085,1641.474,2339.1,1619.833,2311.714,1620.076Z" transform="translate(-393.094 -455)"/><path class="cls-34" d="M2171.862,1761.559c.086-27.249-23.3-48.79-51.86-46.984-25.285,1.6-46.259,22.016-47.677,46.521a46.378,46.378,0,0,0,24.83,43.831,17.2,17.2,0,0,1,8.63,18.355l-11.13,62.328c-1.416,7.933,4.872,14.914,13.164,14.622l28.171-.988c8.236-.288,14.5-7.669,13.141-15.467l-10.769-61.736c-1.286-7.372,2.513-14.679,9.19-18.695C2162.066,1794.615,2171.806,1779.077,2171.862,1761.559Z" transform="translate(-393.094 -455)"/><path class="cls-35" d="M2306.3,1595.6a20.545,20.545,0,0,1-20.867-20.525l.234-53.745c.236-53.98-44.39-98.387-100.008-98.939l-125.693-1.247c-57.561-.573-104.888,44.312-104.936,100l-.049,55.443c-.01,11.772-10.033,21.38-22.412,21.461-12.408.081-22.483-9.434-22.477-21.256l.021-55.674c.031-79.587,67.81-143.5,149.936-142.355l125.749,1.748c79,1.1,142.1,64.324,141.732,140.843l-.257,53.531A21.009,21.009,0,0,1,2306.3,1595.6Z" transform="translate(-393.094 -455)"/><path class="cls-36" d="M1506.828,1864.245a210.079,210.079,0,0,0,11.343-18.035c3.911-7.453-5.618-28.092-9.821-45.32s-6.367,9.645-6.9,15.73-.594,17.327-6.89,36.627Z" transform="translate(-393.094 -455)"/><path class="cls-37" d="M1459.082,2899.889l-2.888,46.187s6.559,6.948,19.175,2.112l13.783-45.354Z" transform="translate(-393.094 -455)"/><path class="cls-38" d="M1464.864,2933.849s-22.621,9.227-18.229,19.231c2.357,5.372,10.516,17.507,17.567,27.593a26.433,26.433,0,0,0,29.225,10.2c3.661-1.1,7.407-2.169,10.722-3.024a7.172,7.172,0,0,0,.58-13.708,53.627,53.627,0,0,0-9.239-2.5c-8.282-1.278-19.676-20.842-21.01-28.679S1464.864,2933.849,1464.864,2933.849Z" transform="translate(-393.094 -455)"/><path class="cls-39" d="M1410.491,2456.58c33.32,11.5,156.532,58.073,183.977,164.9,1.465,5.7,5.223,21.563,5.393,47.466.709,107.828-61.994,199.084-107.6,252.172q-21.567-.358-43.13-.721c-7.176-27.52-13.769-68.681-3.45-115,15.771-70.786,56.686-89.146,48.8-123.89-14.328-63.093-160.832-53.547-174.637-110.044C1314.856,2551.06,1325.814,2516.428,1410.491,2456.58Z" transform="translate(-393.094 -455)"/><path class="cls-40" d="M998.38,3102.128l62.563-1.459a4.169,4.169,0,0,0,2.558-7.377,15.836,15.836,0,0,0-12.074-3.911c-11.892,1.237-38.588-15.406-50.7-11.835-3.956,1.167-7.171,10.475-8.819,13.048A7.491,7.491,0,0,0,998.38,3102.128Z" transform="translate(-393.094 -455)"/><path class="cls-41" d="M1026.488,3054.063l-25.762,23.483a28.678,28.678,0,0,0,22.116,3.839l26.333-18.122Z" transform="translate(-393.094 -455)"/><g class="cls-42"><path class="cls-43" d="M1521.022,2734.785c17.28-46.654,38-104.179,14.335-136.84-23.95-33.053-76.421-5.155-129.059-31.788-19.525-9.879-39.589-27.559-56.282-59.555-29.551,30.507-33.566,50.983-30.173,64.866,13.8,56.5,160.309,46.951,174.637,110.044,7.891,34.744-33.024,53.1-48.8,123.89-8.872,39.817-5.236,75.8.515,102.605a355.117,355.117,0,0,1,25.275-77.427C1490.358,2789.671,1502.817,2783.933,1521.022,2734.785Z" transform="translate(-393.094 -455)"/></g><path class="cls-44" d="M1429.579,2443.107a1121.843,1121.843,0,0,1-162.5,383.678,1117.519,1117.519,0,0,1-216.973,240.434,52.46,52.46,0,0,1-37.771-2.9,358.816,358.816,0,0,1,35.285-106.9c39.815-76.637,75.271-74.175,115.263-141.813,29.282-49.525,38.8-102.137,57.846-207.36,14.7-81.25,14.714-100.67,34.848-123.968C1296.286,2437.171,1372.725,2436.638,1429.579,2443.107Z" transform="translate(-393.094 -455)"/><g class="cls-45"><path class="cls-46" d="M1062.885,2974.745c14.21-22.426,39.422-45.78,89.154-91.849,51.4-47.611,49.421-39,59.537-53.073,45.292-62.992,20.767-130.3,31.964-211.531,6.249-45.32,26.259-104.542,84.52-170.879-27.3,5.035-53.447,15.862-72.482,36.861-23.371,25.784-21.648,51.033-34.848,123.968-19.042,105.223-28.564,157.835-57.846,207.36-39.992,67.638-75.446,65.176-115.263,141.813a358.816,358.816,0,0,0-35.285,106.9,52.2,52.2,0,0,0,30.71,4.485C1039.761,3015.552,1055.676,2986.122,1062.885,2974.745Z" transform="translate(-393.094 -455)"/></g><path class="cls-3" d="M1484.336,1838.072S1501,1962.12,1370.287,2049.581l139.087,33.178s44.517-83.24,12.288-221.119Z" transform="translate(-393.094 -455)"/><path class="cls-47" d="M1353.182,1956.076c6.831-13.453,9.648-13.374,11.326-20.475,3.823-16.182-6.047-36.735-14.417-37.02-5.4-.184-5.843,8.205-17.266,21.28-13.994,16.016-22.486,13.914-30.721,27.818-1.927,3.252-10.6,17.891-5.265,28.817,6.8,13.944,33.631,16.152,44.845,5.4C1347,1976.792,1344.768,1972.65,1353.182,1956.076Z" transform="translate(-393.094 -455)"/><path class="cls-48" d="M1333.072,1970.593s4.791,25.569,1.381,46.358c-3.083,18.789-37.889,38.307-44.56,43.9s17.694,11.67,40.046,8.745,83.547-22.507,92.846-33.421-10.828-5.536-27.756-7.6-33.087-30.436-33.58-44.915S1333.072,1970.593,1333.072,1970.593Z" transform="translate(-393.094 -455)"/><path class="cls-49" d="M1340.361,1989.676s17.11,7.513,32.266-4.606c13.568-10.851-6.607-44.184-20.411-44.61-4.6-.142-11.326,3.158-15.295,7.984-2.343,2.851-2.483,4.751-6.4,9.335-3.614,4.227-5.205,4.609-5.754,6.662-.688,2.566.493,6.858,9.784,14.235-4.629-.854-8.621.367-10.167,3.066a5.922,5.922,0,0,0-.606,3.165C1324.331,1989.937,1330.9,1992.266,1340.361,1989.676Z" transform="translate(-393.094 -455)"/><path class="cls-50" d="M1716.389,1900.742s10.362-1.444,7.132-21.234c-2.533-15.513-.615-20.73,3.048-17.981s4.178,11.715,4.178,11.715,13.357-11.392,18.858-26.321,9.036-2.358,10.214,5.107-7.857,30.642-12.964,34.964-12.572,23.367-12.572,23.367Z" transform="translate(-393.094 -455)"/><path class="cls-10" d="M1744,1906.044q-17.681-12.384-35.363-24.766c-14.342,88.169-46.944,122.771-74.635,137.907-66.8,36.514-126.423-28.555-254.287-2-35.236,7.317-96.653,20.948-130.708,71.143-8.953,13.195-12.137,23.185-27,117.838-19,120.992-19.677,142.108-17,168.159,4.9,47.677,7.874,76.569,29.857,102.141,58.372,67.906,182.442,32.893,198,28.286,28.736-8.511,73.4-21.742,91.142-59.714,8.35-17.865,7.462-34.2-5.37-99.535-25.418-129.427-28.665-137.8-21.57-151.976,23.944-47.83,99.812-20.461,163.9-64.94C1698.438,2102.581,1740.677,2045.908,1744,1906.044Z" transform="translate(-393.094 -455)"/><path class="cls-51" d="M1374.719,2487.465c12.51-25.657-4.3-49.3,14.141-80.141,23.507-39.3,65.8-25.959,81.714-55,27.216-49.664-79.91-118.93-58.142-198,10.393-37.751,46.683-65.076,77-75.428,67.3-22.982,111.328,35.6,174.427,17.285,14.955-4.342,32.12-13.338,49.481-32.005-15.345,32.374-34.4,51.934-52.375,64.407-64.09,44.479-139.958,17.11-163.9,64.94-7.095,14.173-3.848,22.549,21.57,151.976,12.832,65.336,13.72,81.67,5.37,99.535-17.744,37.972-62.406,51.2-91.142,59.714-8.514,2.523-49.55,14.121-94.52,13C1358.4,2509.6,1369.2,2498.785,1374.719,2487.465Z" transform="translate(-393.094 -455)"/></g></g></svg>